# xmcd CD database file
#
# Track frame offsets:
#	150
#	71792
#	79312
#	97820
#	104275
#	115510
#	119662
#	124727
#	132092
#	138057
#	183920
#
# Disc length: 3426 seconds
#
# Revision: 0
# Processed by: cddbd v1.5.2PL0 Copyright (c) Steve Scherf et al.
# Submitted via: CDex 1.70beta2
#
DISCID=900d600b
DTITLE=小原孝 - ガーシュインを弾く
DYEAR=1998
DGENRE=Jazz
TTITLE0=ラプソディ・イン・ブルー
TTITLE1=３つのプレリュード Ⅰ Allegro ben ritmato e deciso
TTITLE2=３つのプレリュード Ⅱ Andante con mote poco rubato
TTITLE3=３つのプレリュード Ⅲ Allegro ben ritmato e deciso
TTITLE4=ザ・マン・アイ・ラヴ
TTITLE5=スワニー
TTITLE6=ファシネイティング・リズム
TTITLE7=サムバディ・ラヴズ・ミー
TTITLE8=スワンダフル
TTITLE9=アイ・ガット・リズム・ヴァリエイション
TTITLE10=パリのアメリカ人のファンタジー
EXTD=YEAR: 1998
EXTT0=
EXTT1=
EXTT2=
EXTT3=
EXTT4=
EXTT5=
EXTT6=
EXTT7=
EXTT8=
EXTT9=
EXTT10=
PLAYORDER=
